<svg width="334" height="121" viewBox="0 0 334 121" fill="none" xmlns="http://www.w3.org/2000/svg">
<path d="M233.595 75.145C229.413 79.5062 223.535 81.9777 217.498 81.918H217.453H217.409C210.536 82.5048 204.275 78.3375 202.177 71.7734L201.953 71.1617H250.533V64.4185C250.821 54.6021 247.753 44.8553 241.9 36.9684L241.875 36.9336C235.301 28.9223 225.196 24.397 214.833 24.8197C204.976 24.6407 195.483 28.6687 188.755 35.8793C182.126 43.2789 178.546 52.8168 178.67 62.7327V62.9913C178.392 73.2602 182.415 83.3004 189.705 90.5409L189.725 90.5558C196.94 97.3388 206.284 101.039 216.15 101.039C216.518 101.039 216.891 101.034 217.264 101.024C217.717 101.039 218.169 101.049 218.627 101.049C229.652 101.049 240.214 95.9912 247.111 87.3384L247.305 87.0947V86.1101L234.187 74.5134L233.595 75.135V75.145ZM201.391 55.1541L201.406 55.0795C202.47 48.4706 208.104 43.627 214.803 43.5624C214.843 43.5624 214.877 43.5624 214.912 43.5624C221.67 43.5624 227.225 48.6098 227.857 55.3431L227.946 55.7657H201.232L201.386 55.1541H201.391Z" fill="#002F63"/>
<path d="M176.532 0.557129H153.791V99.2583H176.532V0.557129Z" fill="#002F63"/>
<path d="M140.379 35.78C132.771 28.4799 122.78 24.5712 112.233 24.7701C101.675 24.6358 91.6252 28.5445 83.9272 35.785C76.6569 42.7917 72.5145 52.5982 72.5593 62.708C72.5941 64.5181 72.7433 66.3432 72.9919 68.1334V68.4019L72.6587 68.7301L72.6289 68.76C66.7012 75.2794 58.2474 79.0936 49.4355 79.2278C42.4884 79.0239 36.0386 76.1297 31.2697 71.0823C26.4957 66.0299 23.9745 59.4209 24.1784 52.4739C24.1784 52.3048 24.1883 52.1357 24.1983 51.9617V51.6484V51.6036C23.507 37.2768 34.6064 25.0585 48.9482 24.3623C49.1421 24.3524 49.341 24.3474 49.535 24.3424C58.138 24.5811 66.1542 28.1317 72.1067 34.3428L72.783 35.049L87.5972 18.1413L87.0154 17.5495C77.2686 7.65851 63.7225 2.36242 49.8482 3.02381C43.2095 2.90944 36.7249 4.10789 30.5635 6.58437C24.3972 9.06583 18.8773 12.696 14.1581 17.3954C9.69245 21.9853 6.22139 27.3261 3.83442 33.2687C1.45243 39.2113 0.27386 45.4721 0.328562 51.8622V52.1208C0.263915 58.5358 1.44745 64.8115 3.8394 70.764C6.23134 76.7165 9.72228 82.0673 14.2177 86.6622C18.7828 91.2174 24.1336 94.763 30.111 97.1947C36.0834 99.6265 42.374 100.82 48.8189 100.75C49.5847 100.785 50.3505 100.805 51.1163 100.805C62.6732 100.805 73.7229 96.6428 82.4354 88.9697L82.8133 88.6464L83.1316 89.0393C83.3354 89.3277 83.5741 89.5913 83.8476 89.82C91.4462 97.0555 101.412 100.959 111.909 100.805C112.118 100.805 112.327 100.805 112.531 100.805C122.885 100.805 132.711 96.9063 140.275 89.7802C147.436 82.7237 151.459 72.9173 151.314 62.887V62.6334C151.464 52.628 147.48 42.8415 140.374 35.7701L140.379 35.78ZM95.1907 62.6831C94.6288 53.4883 101.655 45.5517 110.855 44.9897C111.193 44.9698 111.541 44.9599 111.88 44.9599C111.924 44.9599 111.969 44.9599 112.014 44.9599C121.532 45.0096 129.23 52.7872 129.18 62.2953C129.18 62.4544 129.18 62.6085 129.17 62.7627V63.0064V63.0661C129.459 67.5018 127.997 71.7884 125.058 75.1302C122.119 78.472 118.056 80.471 113.61 80.7545C113.173 80.7843 112.735 80.7943 112.297 80.7893C107.658 80.7247 103.326 78.8598 100.089 75.538C96.8566 72.2161 95.1112 67.835 95.1758 63.2003C95.1758 63.0611 95.1808 62.9169 95.1858 62.7776V62.7329V62.6881L95.1907 62.6831Z" fill="#002F63"/>
<path d="M318.964 100.924C327.102 100.924 333.699 94.3319 333.699 86.1997C333.699 78.0675 327.102 71.4751 318.964 71.4751C310.826 71.4751 304.229 78.0675 304.229 86.1997C304.229 94.3319 310.826 100.924 318.964 100.924Z" fill="#029EE1"/>
<path d="M296.581 26.1178V26.9234L282.836 69.8341L282.394 71.1818L267.416 26.1675H243.218L271.265 97.886V98.6319C270.822 99.4574 270.185 100.178 269.425 100.725C268.39 101.282 267.227 101.551 266.068 101.506C263.253 101.352 260.498 100.487 258.101 99.0099L256.769 98.1247L248.817 114.789L249.931 115.485C255.486 118.876 261.856 120.612 268.365 120.512C268.833 120.542 269.3 120.557 269.763 120.557C274.716 120.557 279.49 118.852 283.339 115.679L283.403 115.619C287.769 111.238 291.027 105.798 292.827 99.8851L320.635 26.1128H296.581V26.1178Z" fill="#002F63"/>
</svg>
